<mxfile host="65bd71144e">
    <diagram id="i9-q0zfoejMjYJAVrp0k" name="Page-1">
        <mxGraphModel dx="621" dy="484" grid="1" gridSize="10" guides="1" tooltips="1" connect="1" arrows="1" fold="1" page="1" pageScale="1" pageWidth="850" pageHeight="1100" math="0" shadow="0">
            <root>
                <mxCell id="0"/>
                <mxCell id="1" parent="0"/>
                <mxCell id="6" style="edgeStyle=none;html=1;" edge="1" parent="1" source="2" target="4">
                    <mxGeometry relative="1" as="geometry"/>
                </mxCell>
                <mxCell id="2" value="start" style="ellipse;whiteSpace=wrap;html=1;" vertex="1" parent="1">
                    <mxGeometry x="260" y="10" width="120" height="80" as="geometry"/>
                </mxCell>
                <mxCell id="23" style="edgeStyle=none;html=1;exitX=1;exitY=1;exitDx=0;exitDy=0;" edge="1" parent="1" source="4">
                    <mxGeometry relative="1" as="geometry">
                        <mxPoint x="470" y="210" as="targetPoint"/>
                        <Array as="points">
                            <mxPoint x="470" y="170"/>
                        </Array>
                    </mxGeometry>
                </mxCell>
                <mxCell id="4" value="number = 4" style="rounded=0;whiteSpace=wrap;html=1;" vertex="1" parent="1">
                    <mxGeometry x="260" y="110" width="120" height="60" as="geometry"/>
                </mxCell>
                <mxCell id="9" value="" style="endArrow=classic;html=1;exitX=0.5;exitY=1;exitDx=0;exitDy=0;entryX=0.5;entryY=0;entryDx=0;entryDy=0;" edge="1" parent="1" source="4" target="15">
                    <mxGeometry width="50" height="50" relative="1" as="geometry">
                        <mxPoint x="310" y="220" as="sourcePoint"/>
                        <mxPoint x="320" y="220" as="targetPoint"/>
                        <Array as="points">
                            <mxPoint x="190" y="170"/>
                        </Array>
                    </mxGeometry>
                </mxCell>
                <mxCell id="19" style="edgeStyle=none;html=1;exitX=0.5;exitY=0;exitDx=0;exitDy=0;" edge="1" parent="1" source="15" target="18">
                    <mxGeometry relative="1" as="geometry"/>
                </mxCell>
                <mxCell id="15" value="number % 2 == 0" style="shape=parallelogram;perimeter=parallelogramPerimeter;whiteSpace=wrap;html=1;fixedSize=1;" vertex="1" parent="1">
                    <mxGeometry x="130" y="210" width="120" height="60" as="geometry"/>
                </mxCell>
                <mxCell id="29" style="edgeStyle=none;html=1;exitX=0.526;exitY=0.852;exitDx=0;exitDy=0;exitPerimeter=0;entryX=0;entryY=0.5;entryDx=0;entryDy=0;" edge="1" parent="1" source="18" target="31">
                    <mxGeometry relative="1" as="geometry">
                        <mxPoint x="260" y="450" as="targetPoint"/>
                        <Array as="points">
                            <mxPoint x="190" y="460"/>
                        </Array>
                    </mxGeometry>
                </mxCell>
                <mxCell id="18" value="True" style="shape=document;whiteSpace=wrap;html=1;boundedLbl=1;" vertex="1" parent="1">
                    <mxGeometry x="130" y="310" width="120" height="80" as="geometry"/>
                </mxCell>
                <mxCell id="27" style="edgeStyle=none;html=1;exitX=0.5;exitY=1;exitDx=0;exitDy=0;" edge="1" parent="1" source="26">
                    <mxGeometry relative="1" as="geometry">
                        <mxPoint x="470" y="310" as="targetPoint"/>
                    </mxGeometry>
                </mxCell>
                <mxCell id="26" value="number % 2 == 1" style="shape=parallelogram;perimeter=parallelogramPerimeter;whiteSpace=wrap;html=1;fixedSize=1;" vertex="1" parent="1">
                    <mxGeometry x="410" y="210" width="120" height="60" as="geometry"/>
                </mxCell>
                <mxCell id="30" style="edgeStyle=none;html=1;exitX=0.48;exitY=0.84;exitDx=0;exitDy=0;exitPerimeter=0;entryX=1;entryY=0.5;entryDx=0;entryDy=0;" edge="1" parent="1" source="28" target="31">
                    <mxGeometry relative="1" as="geometry">
                        <mxPoint x="400" y="460" as="targetPoint"/>
                        <Array as="points">
                            <mxPoint x="468" y="460"/>
                        </Array>
                    </mxGeometry>
                </mxCell>
                <mxCell id="28" value="False" style="shape=document;whiteSpace=wrap;html=1;boundedLbl=1;size=0.375;" vertex="1" parent="1">
                    <mxGeometry x="410" y="310" width="120" height="80" as="geometry"/>
                </mxCell>
                <mxCell id="31" value="and" style="ellipse;whiteSpace=wrap;html=1;" vertex="1" parent="1">
                    <mxGeometry x="260" y="420" width="120" height="80" as="geometry"/>
                </mxCell>
            </root>
        </mxGraphModel>
    </diagram>
</mxfile>